<svg xmlns="http://www.w3.org/2000/svg" xmlns:xlink="http://www.w3.org/1999/xlink" xmlns:lucid="lucid" width="2230.4" height="840"><g transform="translate(180 -60)" lucid:page-tab-id="0_0"><path d="M1048 80c17.67 0 32 17.9 32 40s-14.33 40-32 40h-96c-17.67 0-32-17.9-32-40s14.33-40 32-40z" stroke="#000" stroke-width="2" fill="#fff"/><use xlink:href="#a" transform="matrix(1,0,0,1,925,85) translate(43.025 38.6)"/><path d="M289.6 240c17.67 0 32 17.9 32 40s-14.33 40-32 40h-96c-17.67 0-32-17.9-32-40s14.33-40 32-40z" stroke="#000" stroke-width="2" fill="#fff"/><use xlink:href="#b" transform="matrix(1,0,0,1,166.60000000000014,245) translate(36.525 38.6)"/><path d="M1048 240c17.67 0 32 17.9 32 40s-14.33 40-32 40h-96c-17.67 0-32-17.9-32-40s14.33-40 32-40z" stroke="#000" stroke-width="2" fill="#fff"/><use xlink:href="#c" transform="matrix(1,0,0,1,925,245) translate(45 38.6)"/><path d="M1998.4 240c17.67 0 32 17.9 32 40s-14.33 40-32 40h-96c-17.67 0-32-17.9-32-40s14.33-40 32-40z" stroke="#000" stroke-width="2" fill="#fff"/><use xlink:href="#d" transform="matrix(1,0,0,1,1875.3999999999999,245) translate(41.525 38.6)"/><path d="M129.6 480c17.67 0 32 17.9 32 40s-14.33 40-32 40h-96c-17.67 0-32-17.9-32-40s14.33-40 32-40z" stroke="#000" stroke-width="2" fill="#fff"/><use xlink:href="#e" transform="matrix(1,0,0,1,6.600000000000136,485) translate(42.025 38.6)"/><path d="M1088 480c17.67 0 32 17.9 32 40s-14.33 40-32 40h-96c-17.67 0-32-17.9-32-40s14.33-40 32-40z" stroke="#000" stroke-width="2" fill="#fff"/><use xlink:href="#f" transform="matrix(1,0,0,1,965,485) translate(35.525 38.6)"/><path d="M848 480c17.67 0 32 17.9 32 40s-14.33 40-32 40h-96c-17.67 0-32-17.9-32-40s14.33-40 32-40z" stroke="#000" stroke-width="2" fill="#fff"/><use xlink:href="#g" transform="matrix(1,0,0,1,725,485) translate(40.025 38.6)"/><path d="M-32 640c17.67 0 32 17.9 32 40s-14.33 40-32 40h-96c-17.67 0-32-17.9-32-40s14.33-40 32-40z" stroke="#000" stroke-width="2" fill="#fff"/><use xlink:href="#h" transform="matrix(1,0,0,1,-155,645) translate(19.549999999999997 38.6)"/><path d="M608 480c17.67 0 32 17.9 32 40s-14.33 40-32 40h-96c-17.67 0-32-17.9-32-40s14.33-40 32-40z" stroke="#000" stroke-width="2" fill="#fff"/><use xlink:href="#i" transform="matrix(1,0,0,1,485,485) translate(40.074999999999996 38.6)"/><path d="M1000 161v39H241.6v20.76" stroke="#000" stroke-width="2" fill="none"/><path d="M1001 161h-2v-1h2zM241.6 235.76l-4.64-14.26h9.28z"/><path d="M241.6 239l-6-18.5h12zm-3.26-16.5l3.26 10.03 3.26-10.03z"/><path d="M1000 161v59.76" stroke="#000" stroke-width="2" fill="none"/><path d="M1001 161h-2v-1h2zM1000 235.76l-4.64-14.26h9.28z"/><path d="M1000 239l-6-18.5h12zm-3.26-16.5l3.26 10.03 3.26-10.03z"/><path d="M241.6 321v79h-160v60.76" stroke="#000" stroke-width="2" fill="none"/><path d="M242.6 321h-2v-1h2zM81.6 475.76l-4.64-14.26h9.28z"/><path d="M81.6 479l-6-18.5h12zm-3.26-16.5l3.26 10.03 3.26-10.03z"/><path d="M1000 161v39h950.4v20.76" stroke="#000" stroke-width="2" fill="none"/><path d="M1001 161h-2v-1h2zM1950.4 235.76l-4.64-14.26h9.28z"/><path d="M1950.4 239l-6-18.5h12zm-3.26-16.5l3.26 10.03 3.26-10.03z"/><path d="M1000 321v79H560v60.76" stroke="#000" stroke-width="2" fill="none"/><path d="M1001 321h-2v-1h2zM560 475.76l-4.64-14.26h9.28z"/><path d="M560 479l-6-18.5h12zm-3.26-16.5l3.26 10.03 3.26-10.03z"/><path d="M1000 321v79H800v60.76" stroke="#000" stroke-width="2" fill="none"/><path d="M1001 321h-2v-1h2zM800 475.76l-4.64-14.26h9.28z"/><path d="M800 479l-6-18.5h12zm-3.26-16.5l3.26 10.03 3.26-10.03z"/><path d="M1000 321v79h40v60.76" stroke="#000" stroke-width="2" fill="none"/><path d="M1001 321h-2v-1h2zM1040 475.76l-4.64-14.26h9.28z"/><path d="M1040 479l-6-18.5h12zm-3.26-16.5l3.26 10.03 3.26-10.03z"/><path d="M81.6 561v39H-80v20.76" stroke="#000" stroke-width="2" fill="none"/><path d="M82.6 561h-2v-1h2zM-80 635.76l-4.64-14.26h9.28z"/><path d="M-80 639l-6-18.5h12zm-3.26-16.5l3.26 10.03 3.26-10.03z"/><path d="M208 640c17.67 0 32 17.9 32 40s-14.33 40-32 40h-96c-17.67 0-32-17.9-32-40s14.33-40 32-40z" stroke="#000" stroke-width="2" fill="#fff"/><use xlink:href="#j" transform="matrix(1,0,0,1,85,645) translate(23.049999999999997 38.6)"/><path d="M81.6 561v39H160v20.76" stroke="#000" stroke-width="2" fill="none"/><path d="M82.6 561h-2v-1h2zM160 635.76l-4.64-14.26h9.28z"/><path d="M160 639l-6-18.5h12zm-3.26-16.5l3.26 10.03 3.26-10.03z"/><path d="M1328 480c17.67 0 32 17.9 32 40s-14.33 40-32 40h-96c-17.67 0-32-17.9-32-40s14.33-40 32-40z" stroke="#000" stroke-width="2" fill="#fff"/><use xlink:href="#k" transform="matrix(1,0,0,1,1205,485) translate(6.074999999999989 38.6)"/><path d="M1000 321v79h280v60.76" stroke="#000" stroke-width="2" fill="none"/><path d="M1001 321h-2v-1h2zM1280 475.76l-4.64-14.26h9.28z"/><path d="M1280 479l-6-18.5h12zm-3.26-16.5l3.26 10.03 3.26-10.03z"/><path d="M1568 480c17.67 0 32 17.9 32 40s-14.33 40-32 40h-96c-17.67 0-32-17.9-32-40s14.33-40 32-40z" stroke="#000" stroke-width="2" fill="#fff"/><use xlink:href="#l" transform="matrix(1,0,0,1,1445,485) translate(10.549999999999997 38.6)"/><path d="M1000 321v79h520v60.76" stroke="#000" stroke-width="2" fill="none"/><path d="M1001 321h-2v-1h2zM1520 475.76l-4.64-14.26h9.28z"/><path d="M1520 479l-6-18.5h12zm-3.26-16.5l3.26 10.03 3.26-10.03z"/><path d="M449.6 800c17.67 0 32 17.9 32 40s-14.33 40-32 40h-96c-17.67 0-32-17.9-32-40s14.33-40 32-40z" stroke="#000" stroke-width="2" fill="#fff"/><use xlink:href="#m" transform="matrix(1,0,0,1,326.60000000000014,805) translate(18.574999999999996 38.6)"/><path d="M560 561v39H401.6v20.76" stroke="#000" stroke-width="2" fill="none"/><path d="M561 561h-2v-1h2zM401.6 635.76l-4.64-14.26h9.28z"/><path d="M401.6 639l-6-18.5h12zm-3.26-16.5l3.26 10.03 3.26-10.03z"/><path d="M691.2 640c17.67 0 32 17.9 32 40s-14.33 40-32 40h-96c-17.67 0-32-17.9-32-40s14.33-40 32-40z" stroke="#000" stroke-width="2" fill="#fff"/><use xlink:href="#n" transform="matrix(1,0,0,1,568.2000000000003,645) translate(33.525 38.6)"/><path d="M449.6 640c17.67 0 32 17.9 32 40s-14.33 40-32 40h-96c-17.67 0-32-17.9-32-40s14.33-40 32-40z" stroke="#000" stroke-width="2" fill="#fff"/><use xlink:href="#o" transform="matrix(1,0,0,1,326.60000000000014,645) translate(31 38.6)"/><path d="M1806.4 480c17.67 0 32 17.9 32 40s-14.33 40-32 40h-96c-17.67 0-32-17.9-32-40s14.33-40 32-40z" stroke="#000" stroke-width="2" fill="#fff"/><use xlink:href="#p" transform="matrix(1,0,0,1,1683.3999999999999,485) translate(15.049999999999997 38.6)"/><path d="M1000 321v79h758.4v60.76" stroke="#000" stroke-width="2" fill="none"/><path d="M1001 321h-2v-1h2zM1758.4 475.76l-4.64-14.26h9.28z"/><path d="M1758.4 479l-6-18.5h12zm-3.26-16.5l3.26 10.03 3.26-10.03z"/><path d="M560 561v39h83.2v20.76" stroke="#000" stroke-width="2" fill="none"/><path d="M561 561h-2v-1h2zM643.2 635.76l-4.64-14.26h9.28z"/><path d="M643.2 639l-6-18.5h12zm-3.26-16.5l3.26 10.03 3.26-10.03z"/><path d="M401.6 721v59.76" stroke="#000" stroke-width="2" fill="none"/><path d="M402.6 721h-2v-1h2zM401.6 795.76l-4.64-14.26h9.28z"/><path d="M401.6 799l-6-18.5h12zm-3.26-16.5l3.26 10.03 3.26-10.03z"/><defs><path d="M18-100v-36l175-74v27L42-118l151 64v27" id="q"/><path d="M24-231v-30h32v30H24zM24 0v-190h32V0H24" id="r"/><path d="M117-194c89-4 53 116 60 194h-32v-121c0-31-8-49-39-48C34-167 62-67 57 0H25l-1-190h30c1 10-1 24 2 32 11-22 29-35 61-36" id="s"/><path d="M85-194c31 0 48 13 60 33l-1-100h32l1 261h-30c-2-10 0-23-3-31C134-8 116 4 85 4 32 4 16-35 15-94c0-66 23-100 70-100zm9 24c-40 0-46 34-46 75 0 40 6 74 45 74 42 0 51-32 51-76 0-42-9-74-50-73" id="t"/><path d="M100-194c63 0 86 42 84 106H49c0 40 14 67 53 68 26 1 43-12 49-29l28 8c-11 28-37 45-77 45C44 4 14-33 15-96c1-61 26-98 85-98zm52 81c6-60-76-77-97-28-3 7-6 17-6 28h103" id="u"/><path d="M141 0L90-78 38 0H4l68-98-65-92h35l48 74 47-74h35l-64 92 68 98h-35" id="v"/><path d="M18-27v-27l151-64-151-65v-27l175 74v36" id="w"/><g id="a"><use transform="matrix(0.05,0,0,0.05,0,0)" xlink:href="#q"/><use transform="matrix(0.05,0,0,0.05,10.5,0)" xlink:href="#r"/><use transform="matrix(0.05,0,0,0.05,14.449999999999998,0)" xlink:href="#s"/><use transform="matrix(0.05,0,0,0.05,24.45,0)" xlink:href="#t"/><use transform="matrix(0.05,0,0,0.05,34.45,0)" xlink:href="#u"/><use transform="matrix(0.05,0,0,0.05,44.45,0)" xlink:href="#v"/><use transform="matrix(0.05,0,0,0.05,53.45,0)" xlink:href="#w"/></g><path d="M106-169C34-169 62-67 57 0H25v-261h32l-1 103c12-21 28-36 61-36 89 0 53 116 60 194h-32v-121c2-32-8-49-39-48" id="x"/><path d="M141-36C126-15 110 5 73 4 37 3 15-17 15-53c-1-64 63-63 125-63 3-35-9-54-41-54-24 1-41 7-42 31l-33-3c5-37 33-52 76-52 45 0 72 20 72 64v82c-1 20 7 32 28 27v20c-31 9-61-2-59-35zM48-53c0 20 12 33 32 33 41-3 63-29 60-74-43 2-92-5-92 41" id="y"/><path d="M114-163C36-179 61-72 57 0H25l-1-190h30c1 12-1 29 2 39 6-27 23-49 58-41v29" id="z"/><g id="b"><use transform="matrix(0.05,0,0,0.05,0,0)" xlink:href="#q"/><use transform="matrix(0.05,0,0,0.05,10.5,0)" xlink:href="#x"/><use transform="matrix(0.05,0,0,0.05,20.5,0)" xlink:href="#u"/><use transform="matrix(0.05,0,0,0.05,30.5,0)" xlink:href="#y"/><use transform="matrix(0.05,0,0,0.05,40.5,0)" xlink:href="#t"/><use transform="matrix(0.05,0,0,0.05,50.5,0)" xlink:href="#u"/><use transform="matrix(0.05,0,0,0.05,60.5,0)" xlink:href="#z"/><use transform="matrix(0.05,0,0,0.05,66.45,0)" xlink:href="#w"/></g><path d="M115-194c53 0 69 39 70 98 0 66-23 100-70 100C84 3 66-7 56-30L54 0H23l1-261h32v101c10-23 28-34 59-34zm-8 174c40 0 45-34 45-75 0-40-5-75-45-74-42 0-51 32-51 76 0 43 10 73 51 73" id="A"/><path d="M100-194c62-1 85 37 85 99 1 63-27 99-86 99S16-35 15-95c0-66 28-99 85-99zM99-20c44 1 53-31 53-75 0-43-8-75-51-75s-53 32-53 75 10 74 51 75" id="B"/><path d="M179-190L93 31C79 59 56 82 12 73V49c39 6 53-20 64-50L1-190h34L92-34l54-156h33" id="C"/><g id="c"><use transform="matrix(0.05,0,0,0.05,0,0)" xlink:href="#q"/><use transform="matrix(0.05,0,0,0.05,10.5,0)" xlink:href="#A"/><use transform="matrix(0.05,0,0,0.05,20.5,0)" xlink:href="#B"/><use transform="matrix(0.05,0,0,0.05,30.5,0)" xlink:href="#t"/><use transform="matrix(0.05,0,0,0.05,40.5,0)" xlink:href="#C"/><use transform="matrix(0.05,0,0,0.05,49.5,0)" xlink:href="#w"/></g><path d="M101-234c-31-9-42 10-38 44h38v23H63V0H32v-167H5v-23h27c-7-52 17-82 69-68v24" id="D"/><path d="M59-47c-2 24 18 29 38 22v24C64 9 27 4 27-40v-127H5v-23h24l9-43h21v43h35v23H59v120" id="E"/><g id="d"><use transform="matrix(0.05,0,0,0.05,0,0)" xlink:href="#q"/><use transform="matrix(0.05,0,0,0.05,10.5,0)" xlink:href="#D"/><use transform="matrix(0.05,0,0,0.05,15.5,0)" xlink:href="#B"/><use transform="matrix(0.05,0,0,0.05,25.5,0)" xlink:href="#B"/><use transform="matrix(0.05,0,0,0.05,35.5,0)" xlink:href="#E"/><use transform="matrix(0.05,0,0,0.05,40.5,0)" xlink:href="#u"/><use transform="matrix(0.05,0,0,0.05,50.5,0)" xlink:href="#z"/><use transform="matrix(0.05,0,0,0.05,56.45,0)" xlink:href="#w"/></g><path d="M210-169c-67 3-38 105-44 169h-31v-121c0-29-5-50-35-48C34-165 62-65 56 0H25l-1-190h30c1 10-1 24 2 32 10-44 99-50 107 0 11-21 27-35 58-36 85-2 47 119 55 194h-31v-121c0-29-5-49-35-48" id="F"/><path d="M84 4C-5 8 30-112 23-190h32v120c0 31 7 50 39 49 72-2 45-101 50-169h31l1 190h-30c-1-10 1-25-2-33-11 22-28 36-60 37" id="G"/><g id="e"><use transform="matrix(0.05,0,0,0.05,0,0)" xlink:href="#q"/><use transform="matrix(0.05,0,0,0.05,10.5,0)" xlink:href="#F"/><use transform="matrix(0.05,0,0,0.05,25.450000000000003,0)" xlink:href="#u"/><use transform="matrix(0.05,0,0,0.05,35.45,0)" xlink:href="#s"/><use transform="matrix(0.05,0,0,0.05,45.45,0)" xlink:href="#G"/><use transform="matrix(0.05,0,0,0.05,55.45,0)" xlink:href="#w"/></g><path d="M135-143c-3-34-86-38-87 0 15 53 115 12 119 90S17 21 10-45l28-5c4 36 97 45 98 0-10-56-113-15-118-90-4-57 82-63 122-42 12 7 21 19 24 35" id="H"/><path d="M177-190C167-65 218 103 67 71c-23-6-38-20-44-43l32-5c15 47 100 32 89-28v-30C133-14 115 1 83 1 29 1 15-40 15-95c0-56 16-97 71-98 29-1 48 16 59 35 1-10 0-23 2-32h30zM94-22c36 0 50-32 50-73 0-42-14-75-50-75-39 0-46 34-46 75s6 73 46 73" id="I"/><path d="M-5 72V49h209v23H-5" id="J"/><path d="M33 0v-248h34V0H33" id="K"/><g id="f"><use transform="matrix(0.05,0,0,0.05,0,0)" xlink:href="#q"/><use transform="matrix(0.05,0,0,0.05,10.5,0)" xlink:href="#H"/><use transform="matrix(0.05,0,0,0.05,19.5,0)" xlink:href="#r"/><use transform="matrix(0.05,0,0,0.05,23.45,0)" xlink:href="#I"/><use transform="matrix(0.05,0,0,0.05,33.45,0)" xlink:href="#s"/><use transform="matrix(0.05,0,0,0.05,43.45,0)" xlink:href="#J"/><use transform="matrix(0.05,0,0,0.05,53.45,0)" xlink:href="#K"/><use transform="matrix(0.05,0,0,0.05,58.45,0)" xlink:href="#s"/><use transform="matrix(0.05,0,0,0.05,68.45,0)" xlink:href="#w"/></g><path d="M24 0v-261h32V0H24" id="L"/><g id="g"><use transform="matrix(0.05,0,0,0.05,0,0)" xlink:href="#q"/><use transform="matrix(0.05,0,0,0.05,10.5,0)" xlink:href="#L"/><use transform="matrix(0.05,0,0,0.05,14.449999999999998,0)" xlink:href="#B"/><use transform="matrix(0.05,0,0,0.05,24.45,0)" xlink:href="#I"/><use transform="matrix(0.05,0,0,0.05,34.45,0)" xlink:href="#J"/><use transform="matrix(0.05,0,0,0.05,44.45,0)" xlink:href="#K"/><use transform="matrix(0.05,0,0,0.05,49.45,0)" xlink:href="#s"/><use transform="matrix(0.05,0,0,0.05,59.45,0)" xlink:href="#w"/></g><path d="M96-169c-40 0-48 33-48 73s9 75 48 75c24 0 41-14 43-38l32 2c-6 37-31 61-74 61-59 0-76-41-82-99-10-93 101-131 147-64 4 7 5 14 7 22l-32 3c-4-21-16-35-41-35" id="M"/><g id="h"><use transform="matrix(0.05,0,0,0.05,0,0)" xlink:href="#q"/><use transform="matrix(0.05,0,0,0.05,10.5,0)" xlink:href="#H"/><use transform="matrix(0.05,0,0,0.05,19.5,0)" xlink:href="#u"/><use transform="matrix(0.05,0,0,0.05,29.5,0)" xlink:href="#y"/><use transform="matrix(0.05,0,0,0.05,39.5,0)" xlink:href="#z"/><use transform="matrix(0.05,0,0,0.05,45.45,0)" xlink:href="#M"/><use transform="matrix(0.05,0,0,0.05,54.45,0)" xlink:href="#x"/><use transform="matrix(0.05,0,0,0.05,64.45,0)" xlink:href="#J"/><use transform="matrix(0.05,0,0,0.05,74.45,0)" xlink:href="#A"/><use transform="matrix(0.05,0,0,0.05,84.45,0)" xlink:href="#y"/><use transform="matrix(0.05,0,0,0.05,94.45,0)" xlink:href="#z"/><use transform="matrix(0.05,0,0,0.05,100.4,0)" xlink:href="#w"/></g><path d="M115-194c55 1 70 41 70 98S169 2 115 4C84 4 66-9 55-30l1 105H24l-1-265h31l2 30c10-21 28-34 59-34zm-8 174c40 0 45-34 45-75s-6-73-45-74c-42 0-51 32-51 76 0 43 10 73 51 73" id="N"/><g id="i"><use transform="matrix(0.05,0,0,0.05,0,0)" xlink:href="#q"/><use transform="matrix(0.05,0,0,0.05,10.5,0)" xlink:href="#N"/><use transform="matrix(0.05,0,0,0.05,20.5,0)" xlink:href="#z"/><use transform="matrix(0.05,0,0,0.05,26.450000000000003,0)" xlink:href="#B"/><use transform="matrix(0.05,0,0,0.05,36.45,0)" xlink:href="#D"/><use transform="matrix(0.05,0,0,0.05,41.45,0)" xlink:href="#r"/><use transform="matrix(0.05,0,0,0.05,45.400000000000006,0)" xlink:href="#L"/><use transform="matrix(0.05,0,0,0.05,49.35000000000001,0)" xlink:href="#u"/><use transform="matrix(0.05,0,0,0.05,59.35,0)" xlink:href="#w"/></g><g id="j"><use transform="matrix(0.05,0,0,0.05,0,0)" xlink:href="#q"/><use transform="matrix(0.05,0,0,0.05,10.5,0)" xlink:href="#M"/><use transform="matrix(0.05,0,0,0.05,19.5,0)" xlink:href="#y"/><use transform="matrix(0.05,0,0,0.05,29.5,0)" xlink:href="#E"/><use transform="matrix(0.05,0,0,0.05,34.5,0)" xlink:href="#u"/><use transform="matrix(0.05,0,0,0.05,44.5,0)" xlink:href="#I"/><use transform="matrix(0.05,0,0,0.05,54.5,0)" xlink:href="#B"/><use transform="matrix(0.05,0,0,0.05,64.5,0)" xlink:href="#z"/><use transform="matrix(0.05,0,0,0.05,70.45,0)" xlink:href="#r"/><use transform="matrix(0.05,0,0,0.05,74.4,0)" xlink:href="#u"/><use transform="matrix(0.05,0,0,0.05,84.4,0)" xlink:href="#H"/><use transform="matrix(0.05,0,0,0.05,93.4,0)" xlink:href="#w"/></g><g id="k"><use transform="matrix(0.05,0,0,0.05,0,0)" xlink:href="#q"/><use transform="matrix(0.05,0,0,0.05,10.5,0)" xlink:href="#H"/><use transform="matrix(0.05,0,0,0.05,19.5,0)" xlink:href="#u"/><use transform="matrix(0.05,0,0,0.05,29.5,0)" xlink:href="#y"/><use transform="matrix(0.05,0,0,0.05,39.5,0)" xlink:href="#z"/><use transform="matrix(0.05,0,0,0.05,45.45,0)" xlink:href="#M"/><use transform="matrix(0.05,0,0,0.05,54.45,0)" xlink:href="#x"/><use transform="matrix(0.05,0,0,0.05,64.45,0)" xlink:href="#J"/><use transform="matrix(0.05,0,0,0.05,74.45,0)" xlink:href="#z"/><use transform="matrix(0.05,0,0,0.05,80.4,0)" xlink:href="#u"/><use transform="matrix(0.05,0,0,0.05,90.4,0)" xlink:href="#H"/><use transform="matrix(0.05,0,0,0.05,99.4,0)" xlink:href="#G"/><use transform="matrix(0.05,0,0,0.05,109.4,0)" xlink:href="#L"/><use transform="matrix(0.05,0,0,0.05,113.35000000000001,0)" xlink:href="#E"/><use transform="matrix(0.05,0,0,0.05,118.35000000000001,0)" xlink:href="#H"/><use transform="matrix(0.05,0,0,0.05,127.35000000000001,0)" xlink:href="#w"/></g><g id="l"><use transform="matrix(0.05,0,0,0.05,0,0)" xlink:href="#q"/><use transform="matrix(0.05,0,0,0.05,10.5,0)" xlink:href="#L"/><use transform="matrix(0.05,0,0,0.05,14.449999999999998,0)" xlink:href="#y"/><use transform="matrix(0.05,0,0,0.05,24.45,0)" xlink:href="#s"/><use transform="matrix(0.05,0,0,0.05,34.45,0)" xlink:href="#t"/><use transform="matrix(0.05,0,0,0.05,44.45,0)" xlink:href="#r"/><use transform="matrix(0.05,0,0,0.05,48.400000000000006,0)" xlink:href="#s"/><use transform="matrix(0.05,0,0,0.05,58.400000000000006,0)" xlink:href="#I"/><use transform="matrix(0.05,0,0,0.05,68.4,0)" xlink:href="#J"/><use transform="matrix(0.05,0,0,0.05,78.4,0)" xlink:href="#N"/><use transform="matrix(0.05,0,0,0.05,88.4,0)" xlink:href="#y"/><use transform="matrix(0.05,0,0,0.05,98.4,0)" xlink:href="#I"/><use transform="matrix(0.05,0,0,0.05,108.4,0)" xlink:href="#u"/><use transform="matrix(0.05,0,0,0.05,118.4,0)" xlink:href="#w"/></g><g id="m"><use transform="matrix(0.05,0,0,0.05,0,0)" xlink:href="#q"/><use transform="matrix(0.05,0,0,0.05,10.5,0)" xlink:href="#H"/><use transform="matrix(0.05,0,0,0.05,19.5,0)" xlink:href="#u"/><use transform="matrix(0.05,0,0,0.05,29.5,0)" xlink:href="#s"/><use transform="matrix(0.05,0,0,0.05,39.5,0)" xlink:href="#t"/><use transform="matrix(0.05,0,0,0.05,49.5,0)" xlink:href="#J"/><use transform="matrix(0.05,0,0,0.05,59.5,0)" xlink:href="#u"/><use transform="matrix(0.05,0,0,0.05,69.5,0)" xlink:href="#F"/><use transform="matrix(0.05,0,0,0.05,84.45,0)" xlink:href="#y"/><use transform="matrix(0.05,0,0,0.05,94.45,0)" xlink:href="#r"/><use transform="matrix(0.05,0,0,0.05,98.4,0)" xlink:href="#L"/><use transform="matrix(0.05,0,0,0.05,102.35000000000001,0)" xlink:href="#w"/></g><g id="n"><use transform="matrix(0.05,0,0,0.05,0,0)" xlink:href="#q"/><use transform="matrix(0.05,0,0,0.05,10.5,0)" xlink:href="#H"/><use transform="matrix(0.05,0,0,0.05,19.5,0)" xlink:href="#u"/><use transform="matrix(0.05,0,0,0.05,29.5,0)" xlink:href="#E"/><use transform="matrix(0.05,0,0,0.05,34.5,0)" xlink:href="#E"/><use transform="matrix(0.05,0,0,0.05,39.5,0)" xlink:href="#r"/><use transform="matrix(0.05,0,0,0.05,43.45,0)" xlink:href="#s"/><use transform="matrix(0.05,0,0,0.05,53.45,0)" xlink:href="#I"/><use transform="matrix(0.05,0,0,0.05,63.45,0)" xlink:href="#H"/><use transform="matrix(0.05,0,0,0.05,72.45,0)" xlink:href="#w"/></g><g id="o"><use transform="matrix(0.05,0,0,0.05,0,0)" xlink:href="#q"/><use transform="matrix(0.05,0,0,0.05,10.5,0)" xlink:href="#M"/><use transform="matrix(0.05,0,0,0.05,19.5,0)" xlink:href="#B"/><use transform="matrix(0.05,0,0,0.05,29.5,0)" xlink:href="#s"/><use transform="matrix(0.05,0,0,0.05,39.5,0)" xlink:href="#E"/><use transform="matrix(0.05,0,0,0.05,44.5,0)" xlink:href="#y"/><use transform="matrix(0.05,0,0,0.05,54.5,0)" xlink:href="#M"/><use transform="matrix(0.05,0,0,0.05,63.5,0)" xlink:href="#E"/><use transform="matrix(0.05,0,0,0.05,68.5,0)" xlink:href="#H"/><use transform="matrix(0.05,0,0,0.05,77.5,0)" xlink:href="#w"/></g><g id="p"><use transform="matrix(0.05,0,0,0.05,0,0)" xlink:href="#q"/><use transform="matrix(0.05,0,0,0.05,10.5,0)" xlink:href="#N"/><use transform="matrix(0.05,0,0,0.05,20.5,0)" xlink:href="#z"/><use transform="matrix(0.05,0,0,0.05,26.450000000000003,0)" xlink:href="#B"/><use transform="matrix(0.05,0,0,0.05,36.45,0)" xlink:href="#t"/><use transform="matrix(0.05,0,0,0.05,46.45,0)" xlink:href="#G"/><use transform="matrix(0.05,0,0,0.05,56.45,0)" xlink:href="#M"/><use transform="matrix(0.05,0,0,0.05,65.45,0)" xlink:href="#E"/><use transform="matrix(0.05,0,0,0.05,70.45,0)" xlink:href="#J"/><use transform="matrix(0.05,0,0,0.05,80.45,0)" xlink:href="#r"/><use transform="matrix(0.05,0,0,0.05,84.4,0)" xlink:href="#s"/><use transform="matrix(0.05,0,0,0.05,94.4,0)" xlink:href="#D"/><use transform="matrix(0.05,0,0,0.05,99.4,0)" xlink:href="#B"/><use transform="matrix(0.05,0,0,0.05,109.4,0)" xlink:href="#w"/></g></defs></g></svg>