<svg xmlns="http://www.w3.org/2000/svg" xmlns:xlink="http://www.w3.org/1999/xlink" xmlns:lucid="lucid" width="1467" height="1323"><g transform="translate(1781 0)" lucid:page-tab-id="0_0"><path d="M-5419.2 0h9096v1323.2h-9096z" fill="#fff"/><path d="M-1680 80h1280v1145h-1280z" stroke="#000" stroke-width="2" fill="#fff"/><path d="M-1680 80h1280v60h-1280z" stroke="#000" stroke-width="2" fill="#bfbfbf"/><path d="M-1488 104h1076v24h-1076z" stroke="#000" stroke-width="2" fill="#fff"/><path d="M-1656 104l-12 12 12 12m-12-12h24M-1608 104l12 12-12 12m-12-12h24M-1548 116c-1.4-6.23-2.8-8.15-4.95-9.7-5.36-3.9-12.86-2.72-16.76 2.65-3.9 5.36-2.72 12.86 2.65 16.76 5.36 3.9 12.86 2.72 16.76-2.65" stroke="#000" stroke-width="6" fill="none"/><path d="M-1544.88 104v12h-12z" stroke="#000" stroke-width="1.5"/><path d="M-1524 116l12-12 12 12h-2.4v12h-6v-12h-7.2v12h-6v-12z" stroke="#000"/><use xlink:href="#a" transform="matrix(1,0,0,1,-1660,80) translate(564.525 15.6)"/><use xlink:href="#b" transform="matrix(1,0,0,1,-1660,80) translate(633.475 15.6)"/><use xlink:href="#c" transform="matrix(1,0,0,1,-1482,104) translate(0 15.6)"/><path d="M-1680 140h1280v57.24h-1280z" stroke="#000" stroke-width="2" fill="#fff"/><use xlink:href="#d" transform="matrix(1,0,0,1,-1670,145.7241847826087) translate(607.525 26.6)"/><path d="M-1680 197.24h1280V395h-1280z" stroke="#000" stroke-width="2" fill="#fff"/><use xlink:href="#e" transform="matrix(1,0,0,1,-1670,217.01766304347825) translate(591.1 83.10000000000001)"/><path d="M-1478.75 452.83h254.15v195.9h-254.15z" stroke="#000" stroke-width="2" fill="#fff"/><use xlink:href="#f" transform="matrix(1,0,0,1,-1468.75,472.42199391172) translate(92.525 82.10000000000001)"/><path d="M-1174.14 451.25H-920v195.9h-254.14z" stroke="#000" stroke-width="2" fill="#fff"/><use xlink:href="#f" transform="matrix(1,0,0,1,-1164.1408190733312,470.8390410958904) translate(92.525 82.10000000000001)"/><path d="M-869.53 451.25h254.15v195.9h-254.15z" stroke="#000" stroke-width="2" fill="#fff"/><use xlink:href="#f" transform="matrix(1,0,0,1,-859.5316381466623,470.8390410958904) translate(92.525 82.10000000000001)"/><path d="M-1478.75 679.9h254.15v195.88h-254.15z" stroke="#000" stroke-width="2" fill="#fff"/><use xlink:href="#f" transform="matrix(1,0,0,1,-1468.75,699.4767884322678) translate(92.525 82.10000000000001)"/><path d="M-1168.76 678.3h254.15v195.9h-254.16z" stroke="#000" stroke-width="2" fill="#fff"/><use xlink:href="#f" transform="matrix(1,0,0,1,-1158.7616263624172,697.8938356164383) translate(92.525 82.10000000000001)"/><path d="M-869.53 679.9h254.15v195.88h-254.15z" stroke="#000" stroke-width="2" fill="#fff"/><use xlink:href="#f" transform="matrix(1,0,0,1,-859.5316381466623,699.4767884322678) translate(92.525 82.10000000000001)"/><path d="M-1473.37 904.8h254.15v195.9h-254.15z" stroke="#000" stroke-width="2" fill="#fff"/><use xlink:href="#f" transform="matrix(1,0,0,1,-1463.3708072890863,924.3957318697405) translate(92.525 82.10000000000001)"/><path d="M-1168.76 903.22h254.15v195.9h-254.16z" stroke="#000" stroke-width="2" fill="#fff"/><use xlink:href="#f" transform="matrix(1,0,0,1,-1158.7616263624172,922.8127790539113) translate(92.525 82.10000000000001)"/><path d="M-869.53 903.22h254.15v195.9h-254.15z" stroke="#000" stroke-width="2" fill="#fff"/><use xlink:href="#f" transform="matrix(1,0,0,1,-859.5316381466623,922.8127790539113) translate(92.525 82.10000000000001)"/><path d="M-1680 1060h1280v165h-1280z" stroke="#000" stroke-width="2" fill="#fff"/><use xlink:href="#g" transform="matrix(1,0,0,1,-1670,1076.5) translate(604.05 69.60000000000001)"/><defs><path d="M30 0v-248h33v221h125V0H30" id="h"/><path d="M141-36C126-15 110 5 73 4 37 3 15-17 15-53c-1-64 63-63 125-63 3-35-9-54-41-54-24 1-41 7-42 31l-33-3c5-37 33-52 76-52 45 0 72 20 72 64v82c-1 20 7 32 28 27v20c-31 9-61-2-59-35zM48-53c0 20 12 33 32 33 41-3 63-29 60-74-43 2-92-5-92 41" id="i"/><path d="M117-194c89-4 53 116 60 194h-32v-121c0-31-8-49-39-48C34-167 62-67 57 0H25l-1-190h30c1 10-1 24 2 32 11-22 29-35 61-36" id="j"/><path d="M85-194c31 0 48 13 60 33l-1-100h32l1 261h-30c-2-10 0-23-3-31C134-8 116 4 85 4 32 4 16-35 15-94c0-66 23-100 70-100zm9 24c-40 0-46 34-46 75 0 40 6 74 45 74 42 0 51-32 51-76 0-42-9-74-50-73" id="k"/><path d="M24-231v-30h32v30H24zM24 0v-190h32V0H24" id="l"/><path d="M177-190C167-65 218 103 67 71c-23-6-38-20-44-43l32-5c15 47 100 32 89-28v-30C133-14 115 1 83 1 29 1 15-40 15-95c0-56 16-97 71-98 29-1 48 16 59 35 1-10 0-23 2-32h30zM94-22c36 0 50-32 50-73 0-42-14-75-50-75-39 0-46 34-46 75s6 73 46 73" id="m"/><g id="a"><use transform="matrix(0.05,0,0,0.05,0,0)" xlink:href="#h"/><use transform="matrix(0.05,0,0,0.05,10,0)" xlink:href="#i"/><use transform="matrix(0.05,0,0,0.05,20,0)" xlink:href="#j"/><use transform="matrix(0.05,0,0,0.05,30,0)" xlink:href="#k"/><use transform="matrix(0.05,0,0,0.05,40,0)" xlink:href="#l"/><use transform="matrix(0.05,0,0,0.05,43.95,0)" xlink:href="#j"/><use transform="matrix(0.05,0,0,0.05,53.95,0)" xlink:href="#m"/></g><path d="M30-248c87 1 191-15 191 75 0 78-77 80-158 76V0H30v-248zm33 125c57 0 124 11 124-50 0-59-68-47-124-48v98" id="n"/><path d="M100-194c63 0 86 42 84 106H49c0 40 14 67 53 68 26 1 43-12 49-29l28 8c-11 28-37 45-77 45C44 4 14-33 15-96c1-61 26-98 85-98zm52 81c6-60-76-77-97-28-3 7-6 17-6 28h103" id="o"/><g id="b"><use transform="matrix(0.05,0,0,0.05,0,0)" xlink:href="#n"/><use transform="matrix(0.05,0,0,0.05,12,0)" xlink:href="#i"/><use transform="matrix(0.05,0,0,0.05,22,0)" xlink:href="#m"/><use transform="matrix(0.05,0,0,0.05,32,0)" xlink:href="#o"/></g><path d="M115-194c55 1 70 41 70 98S169 2 115 4C84 4 66-9 55-30l1 105H24l-1-265h31l2 30c10-21 28-34 59-34zm-8 174c40 0 45-34 45-75s-6-73-45-74c-42 0-51 32-51 76 0 43 10 73 51 73" id="p"/><path d="M0 4l72-265h28L28 4H0" id="q"/><g id="c"><use transform="matrix(0.05,0,0,0.05,0,0)" xlink:href="#p"/><use transform="matrix(0.05,0,0,0.05,10,0)" xlink:href="#i"/><use transform="matrix(0.05,0,0,0.05,20,0)" xlink:href="#m"/><use transform="matrix(0.05,0,0,0.05,30,0)" xlink:href="#o"/><use transform="matrix(0.05,0,0,0.05,40,0)" xlink:href="#q"/></g><path d="M240 0l2-218c-23 76-54 145-80 218h-23L58-218 59 0H30v-248h44l77 211c21-75 51-140 76-211h43V0h-30" id="r"/><path d="M84 4C-5 8 30-112 23-190h32v120c0 31 7 50 39 49 72-2 45-101 50-169h31l1 190h-30c-1-10 1-25-2-33-11 22-28 36-60 37" id="s"/><g id="d"><use transform="matrix(0.05,0,0,0.05,0,0)" xlink:href="#r"/><use transform="matrix(0.05,0,0,0.05,14.950000000000001,0)" xlink:href="#o"/><use transform="matrix(0.05,0,0,0.05,24.950000000000003,0)" xlink:href="#j"/><use transform="matrix(0.05,0,0,0.05,34.95,0)" xlink:href="#s"/></g><path d="M212-179c-10-28-35-45-73-45-59 0-87 40-87 99 0 60 29 101 89 101 43 0 62-24 78-52l27 14C228-24 195 4 139 4 59 4 22-46 18-125c-6-104 99-153 187-111 19 9 31 26 39 46" id="t"/><path d="M114-163C36-179 61-72 57 0H25l-1-190h30c1 12-1 29 2 39 6-27 23-49 58-41v29" id="u"/><path d="M100-194c62-1 85 37 85 99 1 63-27 99-86 99S16-35 15-95c0-66 28-99 85-99zM99-20c44 1 53-31 53-75 0-43-8-75-51-75s-53 32-53 75 10 74 51 75" id="v"/><path d="M135-143c-3-34-86-38-87 0 15 53 115 12 119 90S17 21 10-45l28-5c4 36 97 45 98 0-10-56-113-15-118-90-4-57 82-63 122-42 12 7 21 19 24 35" id="w"/><path d="M24 0v-261h32V0H24" id="x"/><g id="e"><use transform="matrix(0.05,0,0,0.05,0,0)" xlink:href="#t"/><use transform="matrix(0.05,0,0,0.05,12.950000000000001,0)" xlink:href="#i"/><use transform="matrix(0.05,0,0,0.05,22.950000000000003,0)" xlink:href="#u"/><use transform="matrix(0.05,0,0,0.05,28.900000000000002,0)" xlink:href="#u"/><use transform="matrix(0.05,0,0,0.05,34.85,0)" xlink:href="#v"/><use transform="matrix(0.05,0,0,0.05,44.85,0)" xlink:href="#s"/><use transform="matrix(0.05,0,0,0.05,54.85,0)" xlink:href="#w"/><use transform="matrix(0.05,0,0,0.05,63.85,0)" xlink:href="#o"/><use transform="matrix(0.05,0,0,0.05,73.85,0)" xlink:href="#x"/></g><path d="M33 0v-248h34V0H33" id="y"/><path d="M210-169c-67 3-38 105-44 169h-31v-121c0-29-5-50-35-48C34-165 62-65 56 0H25l-1-190h30c1 10-1 24 2 32 10-44 99-50 107 0 11-21 27-35 58-36 85-2 47 119 55 194h-31v-121c0-29-5-49-35-48" id="z"/><g id="f"><use transform="matrix(0.05,0,0,0.05,0,0)" xlink:href="#y"/><use transform="matrix(0.05,0,0,0.05,5,0)" xlink:href="#z"/><use transform="matrix(0.05,0,0,0.05,19.950000000000003,0)" xlink:href="#i"/><use transform="matrix(0.05,0,0,0.05,29.950000000000003,0)" xlink:href="#m"/><use transform="matrix(0.05,0,0,0.05,39.95,0)" xlink:href="#o"/></g><path d="M63-220v92h138v28H63V0H30v-248h175v28H63" id="A"/><path d="M59-47c-2 24 18 29 38 22v24C64 9 27 4 27-40v-127H5v-23h24l9-43h21v43h35v23H59v120" id="B"/><g id="g"><use transform="matrix(0.05,0,0,0.05,0,0)" xlink:href="#A"/><use transform="matrix(0.05,0,0,0.05,10.950000000000001,0)" xlink:href="#v"/><use transform="matrix(0.05,0,0,0.05,20.950000000000003,0)" xlink:href="#v"/><use transform="matrix(0.05,0,0,0.05,30.950000000000003,0)" xlink:href="#B"/><use transform="matrix(0.05,0,0,0.05,35.95,0)" xlink:href="#o"/><use transform="matrix(0.05,0,0,0.05,45.95,0)" xlink:href="#u"/></g></defs></g></svg>